HIERARCHY
ROOT Hips
{
  OFFSET 3.13124 94.3669 -3.18751
  CHANNELS  6 Xposition Yposition Zposition Zrotation Xrotation Yrotation
  JOINT LeftUpLeg
  {
    OFFSET 8.64259 1.95398 -2.38835
    CHANNELS 3 Zrotation Xrotation Yrotation
    JOINT LeftLeg
    {
      OFFSET 43.7702 0 0
      CHANNELS 3 Zrotation Xrotation Yrotation
      JOINT LeftFoot
      {
        OFFSET 40.6238 0 0
        CHANNELS 3 Zrotation Xrotation Yrotation
        JOINT LeftToeBase
        {
          OFFSET 12.7242 0 0
          CHANNELS 3 Zrotation Xrotation Yrotation
          End Site
          {
            OFFSET 0 0 0
          }
        }
      }
    }
  }
  JOINT RightUpLeg
  {
    OFFSET -8.2249 1.95398 -2.59336
    CHANNELS 3 Zrotation Xrotation Yrotation
    JOINT RightLeg
    {
      OFFSET 43.5653 0 0
      CHANNELS 3 Zrotation Xrotation Yrotation
      JOINT RightFoot
      {
        OFFSET 40.6238 0 0
        CHANNELS 3 Zrotation Xrotation Yrotation
        JOINT RightToeBase
        {
          OFFSET 12.7242 0 0
          CHANNELS 3 Zrotation Xrotation Yrotation
          End Site
          {
            OFFSET 0 0 0
          }
        }
      }
    }
  }
  JOINT Spine
  {
    OFFSET 0.165834 0.87714 6.61349
    CHANNELS 3 Zrotation Xrotation Yrotation
    JOINT Spine1
    {
      OFFSET 7.38962 1.71661e-005 0
      CHANNELS 3 Zrotation Xrotation Yrotation
      JOINT Spine2
      {
        OFFSET 11.9445 1.14441e-005 0
        CHANNELS 3 Zrotation Xrotation Yrotation
        JOINT Spine3
        {
          OFFSET 14.7254 4.19617e-005 0
          CHANNELS 3 Zrotation Xrotation Yrotation
          JOINT Spine4
          {
            OFFSET 10.9679 0 0
            CHANNELS 3 Zrotation Xrotation Yrotation
            JOINT RightShoulder
            {
              OFFSET 2.46616 -1.6653 3.69651
              CHANNELS 3 Zrotation Xrotation Yrotation
              JOINT RightArm
              {
                OFFSET 13.0012 0 0
                CHANNELS 3 Zrotation Xrotation Yrotation
                JOINT RightForeArm
                {
                  OFFSET 28.7848 1.52588e-005 0
                  CHANNELS 3 Zrotation Xrotation Yrotation
                  JOINT RightHand
                  {
                    OFFSET 26.5688 1.52588e-005 0
                    CHANNELS 3 Zrotation Xrotation Yrotation
                    End Site
                    {
                      OFFSET 0 0 0
                    }
                  }
                }
              }
            }
            JOINT LeftShoulder
            {
              OFFSET 2.38034 -1.29275 -3.75231
              CHANNELS 3 Zrotation Xrotation Yrotation
              JOINT LeftArm
              {
                OFFSET 16.3182 6.10352e-005 0
                CHANNELS 3 Zrotation Xrotation Yrotation
                JOINT LeftForeArm
                {
                  OFFSET 27.0901 0 0
                  CHANNELS 3 Zrotation Xrotation Yrotation
                  JOINT LeftHand
                  {
                    OFFSET 24.5451 1.52588e-005 0
                    CHANNELS 3 Zrotation Xrotation Yrotation
                    End Site
                    {
                      OFFSET 0 0 0
                    }
                  }
                }
              }
            }
            JOINT Neck
            {
              OFFSET 5.0226 -0.0266342 0
              CHANNELS 3 Zrotation Xrotation Yrotation
              JOINT Head
              {
                OFFSET 6.69363 2.86102e-005 0
                CHANNELS 3 Zrotation Xrotation Yrotation
                End Site
                {
                  OFFSET 0 0 0
                }
              }
            }
          }
        }
      }
    }
  }
}
MOTION
Frames:	14
Frame Time:	0.0333333
-1.999 97.1029 -14.5022 25.9756 -89.996 26.0803 -170.999 3.07594 91.2857 -9.67765 8.79028 1.69782 63.7561 1.29164 0.673672 28.7808 6.06536e-006 1.02375e-005 -179.387 2.04041 91.3868 -7.86775 0.795591 0.0312048 62.8684 -1.1368 -0.572494 28.7808 1.50019e-005 2.9327e-005 0.00847156 6.34026 -90.1068 14.1934 -5.64097e-005 -1.64159e-005 2.52247 -5.65705e-005 2.54821e-006 -20.0127 -5.16507e-005 -3.27326e-005 -4.04127e-005 -5.06071e-005 -3.53522e-005 100.929 -18.2732 -85.2537 14.1758 47.0798 -37.2853 -3.26924 0.00469628 -4.91075 -5.37983 -0.320007 -0.0162421 -78.9316 -21.4671 94.4334 5.94365 -42.832 -23.4658 4.21689 45.0663 -4.89926 -1.41687 -0.0696955 -0.917343 1.76106 0.00416815 0.00882316 -7.41655 0.000864511 -0.0112484 
-2.01482 97.0938 -14.4696 -19.9649 -89.9324 -19.879 -171.022 3.09915 91.2642 -9.64934 8.6984 1.68806 63.7619 1.32505 0.69307 28.7808 6.06536e-006 1.02375e-005 -179.401 2.1805 91.3901 -8.06915 0.667121 0.0318513 62.9389 -1.24973 -0.638549 28.7808 1.50019e-005 2.9327e-005 0.00918254 6.33986 -90.1078 14.1942 0.00117255 0.000357874 2.52326 0.00118567 0.000545469 -20.0119 0.00100594 0.000690689 0.000752708 0.00100631 0.000691361 100.885 -18.1979 -85.3739 14.1379 47.0979 -37.153 -3.26924 0.00469628 -4.91075 -5.37983 -0.320007 -0.0162421 -78.9386 -21.4296 94.4272 5.90544 -42.7797 -23.4017 4.2077 45.0446 -4.89739 -1.42385 -0.069695 -0.941864 1.84827 0.0619183 0.132546 -7.47357 0.0124321 -0.177058 
-2.05274 97.1265 -14.415 -20.6926 -89.8413 -20.5473 -171.002 3.05832 91.3403 -9.4403 8.74287 1.68897 63.6496 1.27555 0.666569 28.7808 6.06536e-006 1.02375e-005 -179.303 1.15058 91.4486 -5.83384 0.823779 0.0415094 62.0317 -1.08243 -0.524963 28.7808 1.50019e-005 2.9327e-005 0.026887 6.32829 -90.1397 14.2173 0.0334366 0.0106697 2.54632 0.0338694 0.00917423 -19.9888 0.0286774 0.0202174 0.023822 0.028679 0.0202194 100.88 -18.2066 -85.3935 14.0863 47.1051 -36.9241 -3.26924 0.00469628 -4.91075 -5.37983 -0.320007 -0.0162421 -79.038 -21.3754 94.1781 5.98483 -42.7695 -23.2337 4.1601 44.8981 -4.88487 -1.39761 -0.069696 -0.893251 1.49032 -0.00796832 -0.00348903 -7.05121 -0.00583094 -0.132575 
-2.07927 97.127 -14.3258 -14.6805 -89.724 -14.5133 -170.999 3.09618 91.3635 -9.37994 8.6681 1.6778 63.6657 1.26423 0.660702 28.7808 6.06536e-006 1.02375e-005 -179.284 1.28281 91.5078 -5.96966 0.813645 0.0409231 62.0355 -1.24882 -0.623034 28.7808 1.50019e-005 2.9327e-005 0.0302367 6.31138 -90.1367 14.2511 0.041947 0.0195754 2.58014 0.0427668 0.0177058 -19.955 0.0341264 0.0312743 0.0576228 0.034124 0.0312757 100.841 -18.2866 -85.4798 14.0525 47.1246 -36.817 -3.26924 0.00469628 -4.91075 -5.37983 -0.320007 -0.0162421 -79.0859 -21.281 94.0707 5.90066 -42.7254 -23.1635 4.21187 44.931 -4.88769 -1.46743 -0.0696931 -1.0351 1.20337 -0.0133899 -0.115492 -6.90155 0.00798838 -0.112094 
-2.13193 97.0899 -14.233 -1.88754 -89.663 -1.71646 -170.968 3.13358 91.3946 -9.42307 8.78004 1.67827 63.8466 1.44037 0.763243 28.7808 6.06536e-006 1.02375e-005 -179.296 1.7973 91.5464 -7.01311 0.809118 0.0453455 62.517 -1.27172 -0.643305 28.7808 1.50019e-005 2.9327e-005 0.0222208 6.29207 -90.1196 14.2897 0.0319296 0.0396875 2.61879 0.0336559 0.0382416 -19.9164 0.0185296 0.0474571 0.0962943 0.0185252 0.0474482 100.819 -18.4349 -85.5267 14.0758 47.0936 -36.8452 -3.26924 0.00469628 -4.91075 -5.37983 -0.320007 -0.0162421 -79.1072 -21.1245 94.0102 5.77485 -42.625 -23.1603 4.20845 44.8969 -4.88195 -1.64834 -0.0696247 -1.09137 0.829886 -0.036971 -0.390667 -6.84275 0.0188097 0.03596 
-2.18868 97.1214 -14.1239 -10.7966 -89.7033 -10.5973 -170.904 3.04691 91.4796 -9.45848 8.84054 1.69889 63.7791 1.22247 0.637119 28.7808 6.06536e-006 1.02375e-005 -179.214 1.10324 91.6065 -5.8216 0.93424 0.0506995 62.1338 -1.21354 -0.604898 28.7808 1.50019e-005 2.9327e-005 0.0217909 6.27879 -90.0989 14.3163 0.0396855 0.0667636 2.64535 0.0425873 0.0649465 -19.8898 0.0177836 0.0756056 0.122865 0.0177871 0.0756023 100.802 -18.6052 -85.549 14.1571 46.9737 -36.9243 -3.26924 0.00469628 -4.91075 -5.37983 -0.320007 -0.0162421 -79.1377 -20.8724 93.9329 5.66395 -42.5257 -23.12 4.15153 44.8428 -4.83281 -1.5923 -0.068757 -1.17824 0.477338 -0.071834 -0.756364 -6.91034 0.0299185 0.179792 
-2.24662 97.0939 -14.0102 -12.5531 -89.7454 -12.3623 -170.859 2.99424 91.5133 -9.59322 8.95613 1.72385 63.9651 1.36395 0.718456 28.7808 6.06536e-006 1.02375e-005 -179.221 1.43823 91.6353 -6.76766 0.98581 0.0509115 62.7296 -1.13775 -0.570351 28.7808 1.50019e-005 2.9327e-005 0.0151591 6.26922 -90.065 14.3355 0.0365281 0.0920848 2.66451 0.0405423 0.0903857 -19.8706 0.00715709 0.0988081 0.142023 0.0071616 0.0988042 100.761 -18.7328 -85.6435 14.1805 46.9315 -36.9332 -3.26924 0.00469628 -4.91075 -5.37983 -0.320007 -0.0162421 -79.155 -20.7788 93.8862 5.62352 -42.5254 -23.149 4.17445 44.7291 -4.84677 -1.67327 -0.0709782 -1.27916 0.25707 -0.0944732 -0.956483 -6.97932 0.0348014 0.169417 
-2.28937 97.074 -13.9035 -35.8581 -89.7331 -35.6591 -170.824 2.95758 91.5481 -9.74245 8.8701 1.73904 64.0919 1.36216 0.716948 28.7808 6.06536e-006 1.02375e-005 -179.222 1.7478 91.6784 -7.60127 0.816356 0.0408745 63.1391 -1.22112 -0.626171 28.7808 1.50019e-005 2.9327e-005 0.0183853 6.26277 -90.0221 14.3483 0.0556021 0.123572 2.67736 0.0609865 0.120999 -19.8578 0.0158914 0.134569 0.154893 0.0158897 0.134567 100.757 -18.9461 -85.6401 14.2465 46.849 -37.0337 -3.26924 0.00469628 -4.91075 -5.37983 -0.320007 -0.0162421 -79.1241 -20.5311 93.94 5.44858 -42.471 -23.2463 4.21685 44.794 -4.85146 -1.65952 -0.0750372 -1.36258 0.264248 -0.15872 -1.29857 -7.13923 0.0141925 0.287372 
-2.33997 97.0911 -13.7828 -71.7332 -89.7702 -71.518 -170.758 2.75037 91.624 -9.77727 8.90822 1.76246 64.1344 1.2831 0.672597 28.7808 6.06536e-006 1.02375e-005 -179.156 0.977634 91.7047 -6.49419 1.0448 0.0550806 63.0195 -0.929007 -0.455514 28.7808 1.50019e-005 2.9327e-005 0.0255641 6.26942 -90.021 14.335 0.0712523 0.124789 2.66405 0.0766725 0.12153 -19.8711 0.0304515 0.140433 0.141586 0.0304471 0.140427 100.737 -18.8745 -85.6942 14.2617 46.786 -36.9356 -3.26924 0.00469628 -4.91075 -5.37983 -0.320007 -0.0162421 -79.1343 -20.6434 93.9247 5.51642 -42.5166 -23.2927 4.1921 44.7862 -4.80483 -1.72589 -0.0795468 -1.49627 0.298015 -0.199111 -1.1585 -7.1848 -0.0353862 0.0630072 
-2.37382 97.1039 -13.6825 -82.8807 -89.6622 -82.6076 -170.689 2.66285 91.7211 -9.79457 9.01936 1.79085 64.1711 1.2561 0.657485 28.7808 6.06536e-006 1.02375e-005 -179.099 0.752868 91.8006 -6.20654 0.953834 0.0500893 62.8152 -0.986269 -0.485579 28.7808 1.50019e-005 2.9327e-005 0.0338937 6.26312 -90.0112 14.3476 0.0918336 0.135552 2.67662 0.0977117 0.131371 -19.8585 0.0468456 0.156885 0.154154 0.0468445 0.156885 100.737 -18.9731 -85.687 14.2977 46.7358 -36.9801 -3.26924 0.00469628 -4.91075 -5.37983 -0.320007 -0.0162421 -79.0854 -20.5553 94.0301 5.47782 -42.4853 -23.3503 4.13594 44.7023 -4.79197 -1.6475 -0.0831306 -1.435 0.438436 -0.247992 -1.25919 -7.29871 -0.0685265 0.0706631 
-2.39525 97.0684 -13.5807 -74.4438 -89.6017 -74.1869 -170.664 2.70382 91.7171 -9.89528 8.96377 1.76152 64.3386 1.40527 0.742011 28.7808 6.06536e-006 1.02375e-005 -179.153 1.54506 91.806 -7.80573 0.764715 0.0380381 63.3462 -1.27511 -0.662122 28.7808 1.50019e-005 2.9327e-005 0.0323628 6.25051 -89.9793 14.3728 0.0951907 0.146058 2.70184 0.10152 0.141887 -19.8333 0.0468904 0.167914 0.179381 0.0468936 0.167904 100.744 -18.9634 -85.6703 14.3349 46.6837 -37.0231 -3.26924 0.00469628 -4.91075 -5.37983 -0.320007 -0.0162421 -78.9916 -20.5935 94.2469 5.41823 -42.5081 -23.5276 4.18114 44.7978 -4.77711 -1.82569 -0.0843881 -1.61043 0.737988 -0.226615 -1.17764 -7.54564 -0.0517677 -0.0159613 
-2.39097 97.1098 -13.5021 -63.7804 -89.4826 -63.4928 -170.676 2.66344 91.747 -9.65024 8.94279 1.76132 64.1344 1.18293 0.616486 28.7808 6.06536e-006 1.02375e-005 -179.07 0.498179 91.8068 -5.49733 0.914663 0.0480825 62.5467 -0.94085 -0.45392 28.7808 1.50019e-005 2.9327e-005 0.0435221 6.22698 -90.0166 14.4198 0.111812 0.142154 2.7488 0.117984 0.143926 -19.7863 0.0638471 0.169264 0.22635 0.0638424 0.169251 100.766 -18.8156 -85.6247 14.3784 46.5994 -37.0079 -3.26924 0.00469628 -4.91075 -5.37983 -0.320007 -0.0162421 -78.9391 -20.7143 94.3752 5.44141 -42.5481 -23.588 4.25225 45.0292 -4.7534 -1.97245 -0.0818691 -1.9264 0.949586 -0.204991 -0.953522 -7.67074 -0.0543279 -0.153444 
-2.40813 97.089 -13.4218 -62.6169 -89.4516 -62.3394 -170.631 2.67815 91.7617 -9.75212 9.06631 1.75527 64.2622 1.28662 0.674544 28.7808 6.06536e-006 1.02375e-005 -179.11 1.15439 91.8224 -6.88799 0.754699 0.0384905 63.0143 -1.22548 -0.628397 28.7808 1.50019e-005 2.9327e-005 0.0349765 6.2301 -89.9862 14.4136 0.099923 0.141712 2.74266 0.106404 0.14237 -19.7924 0.0503708 0.167638 0.220212 0.0503768 0.167625 100.733 -18.869 -85.7027 14.3038 46.7376 -37.0299 -3.26924 0.00469628 -4.91075 -5.37983 -0.320007 -0.0162421 -78.8093 -20.7187 94.671 5.41281 -42.5382 -23.6901 4.07543 44.4147 -4.78792 -1.6127 -0.0709295 -1.40974 1.36606 -0.16414 -0.970247 -7.83193 -0.0123624 -0.0605229 
-2.39729 97.0959 -13.3625 -57.0921 -89.4248 -56.7663 -170.614 2.64723 91.8017 -9.63449 9.04095 1.72761 64.2925 1.34675 0.711369 28.7808 6.06536e-006 1.02375e-005 -179.045 0.455255 91.8475 -5.41941 0.866585 0.0455344 62.5917 -0.950437 -0.460724 28.7808 1.50019e-005 2.9327e-005 0.0398922 6.23088 -90.0136 14.4147 0.0981993 0.142584 2.74372 0.104555 0.139833 -19.7914 0.0495707 0.164569 0.221278 0.0495761 0.164559 100.769 -18.76 -85.6214 14.3146 46.7057 -36.9826 -3.26924 0.00469628 -4.91075 -5.37983 -0.320007 -0.0162421 -78.727 -20.7384 94.8585 5.30452 -42.5138 -23.8421 4.09608 44.524 -4.76536 -1.72369 -0.0744976 -1.49976 1.73975 -0.148274 -0.842213 -7.97524 -0.00783132 -0.164062 
